<mxfile host="Electron" modified="2023-11-27T14:12:11.310Z" agent="Mozilla/5.0 (X11; Linux x86_64) AppleWebKit/537.36 (KHTML, like Gecko) draw.io/22.1.2 Chrome/114.0.5735.289 Electron/25.9.4 Safari/537.36" etag="fYnBt5kKgml3PXYXdfI5" version="22.1.2" type="device">
  <diagram name="Seite-1" id="9E-J7gsoXNZanX1EH7gW">
    <mxGraphModel dx="1037" dy="613" grid="1" gridSize="10" guides="1" tooltips="1" connect="1" arrows="1" fold="1" page="1" pageScale="1" pageWidth="827" pageHeight="1169" math="0" shadow="0">
      <root>
        <mxCell id="0" />
        <mxCell id="1" parent="0" />
        <mxCell id="HujxB4LHYnJnVDp51Kzx-1" value="task / normal world" style="rounded=1;whiteSpace=wrap;html=1;" vertex="1" parent="1">
          <mxGeometry x="240" y="149" width="120" height="60" as="geometry" />
        </mxCell>
        <mxCell id="HujxB4LHYnJnVDp51Kzx-2" value="secure world" style="rounded=1;whiteSpace=wrap;html=1;" vertex="1" parent="1">
          <mxGeometry x="460" y="149" width="120" height="60" as="geometry" />
        </mxCell>
        <mxCell id="HujxB4LHYnJnVDp51Kzx-3" value="monitor" style="rounded=1;whiteSpace=wrap;html=1;" vertex="1" parent="1">
          <mxGeometry x="680" y="149" width="120" height="60" as="geometry" />
        </mxCell>
        <mxCell id="HujxB4LHYnJnVDp51Kzx-5" value="" style="endArrow=classic;html=1;rounded=0;edgeStyle=orthogonalEdgeStyle;" edge="1" parent="1">
          <mxGeometry relative="1" as="geometry">
            <mxPoint x="300" y="280" as="sourcePoint" />
            <mxPoint x="740" y="310" as="targetPoint" />
            <Array as="points">
              <mxPoint x="300" y="290" />
              <mxPoint x="740" y="290" />
            </Array>
          </mxGeometry>
        </mxCell>
        <mxCell id="HujxB4LHYnJnVDp51Kzx-7" value="SMC 3" style="edgeLabel;html=1;align=center;verticalAlign=middle;resizable=0;points=[];" vertex="1" connectable="0" parent="HujxB4LHYnJnVDp51Kzx-5">
          <mxGeometry x="0.009" y="-5" relative="1" as="geometry">
            <mxPoint x="118" y="-5" as="offset" />
          </mxGeometry>
        </mxCell>
        <mxCell id="HujxB4LHYnJnVDp51Kzx-8" value="" style="endArrow=classic;html=1;rounded=0;edgeStyle=orthogonalEdgeStyle;" edge="1" parent="1">
          <mxGeometry relative="1" as="geometry">
            <mxPoint x="740" y="320" as="sourcePoint" />
            <mxPoint x="520" y="340" as="targetPoint" />
            <Array as="points">
              <mxPoint x="520" y="320" />
            </Array>
          </mxGeometry>
        </mxCell>
        <mxCell id="HujxB4LHYnJnVDp51Kzx-9" value="vPortYield&lt;br&gt;LR = LR + 4" style="edgeLabel;html=1;align=center;verticalAlign=middle;resizable=0;points=[];" vertex="1" connectable="0" parent="HujxB4LHYnJnVDp51Kzx-8">
          <mxGeometry x="0.009" y="-5" relative="1" as="geometry">
            <mxPoint x="-99" y="35" as="offset" />
          </mxGeometry>
        </mxCell>
        <mxCell id="HujxB4LHYnJnVDp51Kzx-10" value="" style="endArrow=classic;html=1;rounded=0;edgeStyle=orthogonalEdgeStyle;" edge="1" parent="1">
          <mxGeometry relative="1" as="geometry">
            <mxPoint x="520" y="360" as="sourcePoint" />
            <mxPoint x="740" y="390" as="targetPoint" />
            <Array as="points">
              <mxPoint x="520" y="370" />
            </Array>
          </mxGeometry>
        </mxCell>
        <mxCell id="HujxB4LHYnJnVDp51Kzx-11" value="SAVE/SMC 1" style="edgeLabel;html=1;align=center;verticalAlign=middle;resizable=0;points=[];" vertex="1" connectable="0" parent="HujxB4LHYnJnVDp51Kzx-10">
          <mxGeometry x="0.009" y="-5" relative="1" as="geometry">
            <mxPoint x="24" y="-5" as="offset" />
          </mxGeometry>
        </mxCell>
        <mxCell id="HujxB4LHYnJnVDp51Kzx-12" value="" style="endArrow=classic;html=1;rounded=0;edgeStyle=orthogonalEdgeStyle;" edge="1" parent="1">
          <mxGeometry relative="1" as="geometry">
            <mxPoint x="740" y="410" as="sourcePoint" />
            <mxPoint x="520" y="430" as="targetPoint" />
            <Array as="points">
              <mxPoint x="520" y="410" />
            </Array>
          </mxGeometry>
        </mxCell>
        <mxCell id="HujxB4LHYnJnVDp51Kzx-13" value="vTaskSwitchContext" style="edgeLabel;html=1;align=center;verticalAlign=middle;resizable=0;points=[];" vertex="1" connectable="0" parent="HujxB4LHYnJnVDp51Kzx-12">
          <mxGeometry x="0.009" y="-5" relative="1" as="geometry">
            <mxPoint x="-99" y="35" as="offset" />
          </mxGeometry>
        </mxCell>
        <mxCell id="HujxB4LHYnJnVDp51Kzx-14" value="" style="endArrow=classic;html=1;rounded=0;edgeStyle=orthogonalEdgeStyle;" edge="1" parent="1">
          <mxGeometry relative="1" as="geometry">
            <mxPoint x="520" y="450" as="sourcePoint" />
            <mxPoint x="740" y="480" as="targetPoint" />
            <Array as="points">
              <mxPoint x="520" y="460" />
            </Array>
          </mxGeometry>
        </mxCell>
        <mxCell id="HujxB4LHYnJnVDp51Kzx-15" value="RESTORE/SMC 0" style="edgeLabel;html=1;align=center;verticalAlign=middle;resizable=0;points=[];" vertex="1" connectable="0" parent="HujxB4LHYnJnVDp51Kzx-14">
          <mxGeometry x="0.009" y="-5" relative="1" as="geometry">
            <mxPoint x="24" y="-5" as="offset" />
          </mxGeometry>
        </mxCell>
        <mxCell id="HujxB4LHYnJnVDp51Kzx-16" value="Detection" style="rounded=0;whiteSpace=wrap;html=1;" vertex="1" parent="1">
          <mxGeometry x="710" y="480" width="60" height="20" as="geometry" />
        </mxCell>
        <mxCell id="HujxB4LHYnJnVDp51Kzx-17" value="" style="endArrow=classic;html=1;rounded=0;exitX=0.5;exitY=1;exitDx=0;exitDy=0;edgeStyle=orthogonalEdgeStyle;" edge="1" parent="1" source="HujxB4LHYnJnVDp51Kzx-16">
          <mxGeometry width="50" height="50" relative="1" as="geometry">
            <mxPoint x="610" y="460" as="sourcePoint" />
            <mxPoint x="300" y="540" as="targetPoint" />
          </mxGeometry>
        </mxCell>
        <mxCell id="HujxB4LHYnJnVDp51Kzx-19" value="push LR&lt;br&gt;push SPSR" style="text;strokeColor=none;fillColor=none;align=left;verticalAlign=middle;spacingLeft=4;spacingRight=4;overflow=hidden;points=[[0,0.5],[1,0.5]];portConstraint=eastwest;rotatable=0;whiteSpace=wrap;html=1;" vertex="1" parent="1">
          <mxGeometry x="747" y="290" width="80" height="30" as="geometry" />
        </mxCell>
        <mxCell id="HujxB4LHYnJnVDp51Kzx-20" value="Stack" style="swimlane;fontStyle=0;childLayout=stackLayout;horizontal=1;startSize=30;horizontalStack=0;resizeParent=1;resizeParentMax=0;resizeLast=0;collapsible=1;marginBottom=0;whiteSpace=wrap;html=1;" vertex="1" parent="1">
          <mxGeometry x="30" y="330" width="110" height="300" as="geometry">
            <mxRectangle x="30" y="330" width="70" height="30" as="alternateBounds" />
          </mxGeometry>
        </mxCell>
        <mxCell id="HujxB4LHYnJnVDp51Kzx-21" value="18:&lt;span style=&quot;white-space: pre;&quot;&gt;&#x9;&lt;/span&gt;ret/pc/r15" style="text;strokeColor=none;fillColor=none;align=left;verticalAlign=middle;spacingLeft=4;spacingRight=4;overflow=hidden;points=[[0,0.5],[1,0.5]];portConstraint=eastwest;rotatable=0;whiteSpace=wrap;html=1;" vertex="1" parent="HujxB4LHYnJnVDp51Kzx-20">
          <mxGeometry y="30" width="110" height="30" as="geometry" />
        </mxCell>
        <mxCell id="HujxB4LHYnJnVDp51Kzx-22" value="17:&lt;span style=&quot;white-space: pre;&quot;&gt;&#x9;&lt;/span&gt;r14" style="text;strokeColor=none;fillColor=none;align=left;verticalAlign=middle;spacingLeft=4;spacingRight=4;overflow=hidden;points=[[0,0.5],[1,0.5]];portConstraint=eastwest;rotatable=0;whiteSpace=wrap;html=1;" vertex="1" parent="HujxB4LHYnJnVDp51Kzx-20">
          <mxGeometry y="60" width="110" height="30" as="geometry" />
        </mxCell>
        <mxCell id="HujxB4LHYnJnVDp51Kzx-23" value="16:&lt;span style=&quot;white-space: pre;&quot;&gt;&#x9;&lt;/span&gt;SP/r13" style="text;strokeColor=none;fillColor=none;align=left;verticalAlign=middle;spacingLeft=4;spacingRight=4;overflow=hidden;points=[[0,0.5],[1,0.5]];portConstraint=eastwest;rotatable=0;whiteSpace=wrap;html=1;" vertex="1" parent="HujxB4LHYnJnVDp51Kzx-20">
          <mxGeometry y="90" width="110" height="30" as="geometry" />
        </mxCell>
        <mxCell id="HujxB4LHYnJnVDp51Kzx-24" value="15:&lt;span style=&quot;white-space: pre;&quot;&gt;&#x9;&lt;/span&gt;r12" style="text;strokeColor=none;fillColor=none;align=left;verticalAlign=middle;spacingLeft=4;spacingRight=4;overflow=hidden;points=[[0,0.5],[1,0.5]];portConstraint=eastwest;rotatable=0;whiteSpace=wrap;html=1;" vertex="1" parent="HujxB4LHYnJnVDp51Kzx-20">
          <mxGeometry y="120" width="110" height="30" as="geometry" />
        </mxCell>
        <mxCell id="HujxB4LHYnJnVDp51Kzx-25" value="..." style="text;strokeColor=none;fillColor=none;align=left;verticalAlign=middle;spacingLeft=4;spacingRight=4;overflow=hidden;points=[[0,0.5],[1,0.5]];portConstraint=eastwest;rotatable=0;whiteSpace=wrap;html=1;" vertex="1" parent="HujxB4LHYnJnVDp51Kzx-20">
          <mxGeometry y="150" width="110" height="30" as="geometry" />
        </mxCell>
        <mxCell id="HujxB4LHYnJnVDp51Kzx-26" value="4:&lt;span style=&quot;white-space: pre;&quot;&gt;&#x9;&lt;/span&gt;r1" style="text;strokeColor=none;fillColor=none;align=left;verticalAlign=middle;spacingLeft=4;spacingRight=4;overflow=hidden;points=[[0,0.5],[1,0.5]];portConstraint=eastwest;rotatable=0;whiteSpace=wrap;html=1;" vertex="1" parent="HujxB4LHYnJnVDp51Kzx-20">
          <mxGeometry y="180" width="110" height="30" as="geometry" />
        </mxCell>
        <mxCell id="HujxB4LHYnJnVDp51Kzx-27" value="3:&lt;span style=&quot;white-space: pre;&quot;&gt;&#x9;&lt;/span&gt;r0/parameter" style="text;strokeColor=none;fillColor=none;align=left;verticalAlign=middle;spacingLeft=4;spacingRight=4;overflow=hidden;points=[[0,0.5],[1,0.5]];portConstraint=eastwest;rotatable=0;whiteSpace=wrap;html=1;" vertex="1" parent="HujxB4LHYnJnVDp51Kzx-20">
          <mxGeometry y="210" width="110" height="30" as="geometry" />
        </mxCell>
        <mxCell id="HujxB4LHYnJnVDp51Kzx-41" value="2:&lt;span style=&quot;white-space: pre;&quot;&gt;&#x9;&lt;/span&gt;SPSR" style="text;strokeColor=none;fillColor=none;align=left;verticalAlign=middle;spacingLeft=4;spacingRight=4;overflow=hidden;points=[[0,0.5],[1,0.5]];portConstraint=eastwest;rotatable=0;whiteSpace=wrap;html=1;" vertex="1" parent="HujxB4LHYnJnVDp51Kzx-20">
          <mxGeometry y="240" width="110" height="30" as="geometry" />
        </mxCell>
        <mxCell id="HujxB4LHYnJnVDp51Kzx-42" value="1:&lt;span style=&quot;white-space: pre;&quot;&gt;&#x9;&lt;/span&gt;Crit Nest" style="text;strokeColor=none;fillColor=none;align=left;verticalAlign=middle;spacingLeft=4;spacingRight=4;overflow=hidden;points=[[0,0.5],[1,0.5]];portConstraint=eastwest;rotatable=0;whiteSpace=wrap;html=1;" vertex="1" parent="HujxB4LHYnJnVDp51Kzx-20">
          <mxGeometry y="270" width="110" height="30" as="geometry" />
        </mxCell>
        <mxCell id="HujxB4LHYnJnVDp51Kzx-46" value="" style="endArrow=classic;html=1;rounded=0;edgeStyle=orthogonalEdgeStyle;exitX=0.5;exitY=1;exitDx=0;exitDy=0;" edge="1" parent="1" source="HujxB4LHYnJnVDp51Kzx-1">
          <mxGeometry relative="1" as="geometry">
            <mxPoint x="310" y="290" as="sourcePoint" />
            <mxPoint x="300" y="270" as="targetPoint" />
            <Array as="points">
              <mxPoint x="300" y="250" />
              <mxPoint x="330" y="250" />
              <mxPoint x="330" y="270" />
            </Array>
          </mxGeometry>
        </mxCell>
        <mxCell id="HujxB4LHYnJnVDp51Kzx-47" value="ns_SWIHandler" style="edgeLabel;html=1;align=center;verticalAlign=middle;resizable=0;points=[];" vertex="1" connectable="0" parent="HujxB4LHYnJnVDp51Kzx-46">
          <mxGeometry x="0.009" y="-5" relative="1" as="geometry">
            <mxPoint x="50" y="5" as="offset" />
          </mxGeometry>
        </mxCell>
      </root>
    </mxGraphModel>
  </diagram>
</mxfile>
